<svg xmlns="http://www.w3.org/2000/svg" viewBox="0 0 128 128" role="img" aria-label="watercolor star icon">
  <defs>
    <filter id="soften-star" x="-20%" y="-20%" width="140%" height="140%">
      <feGaussianBlur stdDeviation="0.55" />
    </filter>
    <radialGradient id="star-fill" cx="45%" cy="42%" r="68%">
      <stop offset="0%" stop-color="#fff4d9" />
      <stop offset="55%" stop-color="#f2d49f" />
      <stop offset="100%" stop-color="#deb983" />
    </radialGradient>
  </defs>
  <path
    d="M64 12c4 16 8 22 23 25-15 3-19 9-23 25-4-16-8-22-23-25 15-3 19-9 23-25z"
    fill="url(#star-fill)"
    stroke="#b78959"
    stroke-width="3.4"
    stroke-linecap="round"
    stroke-linejoin="round"
    filter="url(#soften-star)"
    opacity="0.96"
    transform="rotate(-8 64 64) translate(0 4)"
  />
  <path
    d="M65 18c3 13 7 18 18 20-11 2-15 7-18 20-3-13-7-18-18-20 11-2 15-7 18-20z"
    fill="#f9ebc9"
    opacity="0.55"
  />
</svg>
