<svg xmlns="http://www.w3.org/2000/svg" viewBox="0 0 160 160" role="img" aria-label="Watercolor food icon">
  <defs>
    <filter id="softFood" x="-20%" y="-20%" width="140%" height="140%">
      <feGaussianBlur stdDeviation="0.6"/>
    </filter>
  </defs>
  <ellipse cx="80" cy="116" rx="48" ry="10" fill="#d8cfc2" opacity="0.35"/>
  <g filter="url(#softFood)">
    <ellipse cx="80" cy="90" rx="52" ry="25" fill="#f6efe4"/>
    <ellipse cx="80" cy="88" rx="49" ry="22" fill="#f0e1ce"/>
    <path d="M36 90c10-12 24-20 44-20s34 8 44 20c-6 10-20 18-44 18S42 100 36 90z" fill="#f2c7a9"/>
    <path d="M52 87c8-6 17-10 28-10s20 4 28 10c-8 5-17 8-28 8s-20-3-28-8z" fill="#e9ab8f"/>
    <circle cx="63" cy="86" r="5" fill="#a8c3a6"/>
    <circle cx="92" cy="84" r="5" fill="#a8c3a6"/>
    <circle cx="79" cy="91" r="4" fill="#a8c3a6"/>
  </g>
</svg>
